<?xml version="1.0" encoding="UTF-8" standalone="no"?>
<!DOCTYPE svg PUBLIC "-//W3C//DTD SVG 1.1//EN"
 "http://www.w3.org/Graphics/SVG/1.1/DTD/svg11.dtd">
<!-- Generated by graphviz version 7.0.6 (20230106.0513)
 -->
<!-- Title: WebServerClassLinking Pages: 1 -->
<svg width="759pt" height="558pt"
 viewBox="0.00 0.00 759.00 557.50" xmlns="http://www.w3.org/2000/svg" xmlns:xlink="http://www.w3.org/1999/xlink">
<g id="graph0" class="graph" transform="scale(1 1) rotate(0) translate(4 553.5)">
<title>WebServerClassLinking</title>
<polygon fill="white" stroke="none" points="-4,4 -4,-553.5 755,-553.5 755,4 -4,4"/>
<!-- serverClass -->
<g id="node1" class="node">
<title>serverClass</title>
<polygon fill="none" stroke="black" points="0,-0.5 0,-276.5 425,-276.5 425,-0.5 0,-0.5"/>
<text text-anchor="middle" x="212.5" y="-261.3" font-family="Times New Roman,serif" font-size="14.00">HttpServer</text>
<polyline fill="none" stroke="black" points="0,-253.5 425,-253.5"/>
<text text-anchor="middle" x="212.5" y="-238.3" font-family="Times New Roman,serif" font-size="14.00">&#45;struct socketEvent</text>
<polyline fill="none" stroke="black" points="0,-230.5 425,-230.5"/>
<text text-anchor="middle" x="212.5" y="-215.3" font-family="Times New Roman,serif" font-size="14.00">&#45;backsideFunctions(GET, POST, PUT, DELETE) : function pointer</text>
<polyline fill="none" stroke="black" points="0,-207.5 425,-207.5"/>
<text text-anchor="middle" x="212.5" y="-192.3" font-family="Times New Roman,serif" font-size="14.00">&#45;ListeningSockets: socketClass</text>
<polyline fill="none" stroke="black" points="0,-184.5 425,-184.5"/>
<text text-anchor="middle" x="212.5" y="-169.3" font-family="Times New Roman,serif" font-size="14.00">&#45;OpenSockets: List&lt;socketClass&gt;</text>
<polyline fill="none" stroke="black" points="0,-161.5 425,-161.5"/>
<text text-anchor="middle" x="212.5" y="-146.3" font-family="Times New Roman,serif" font-size="14.00">&#45;SocketEventQueue: Queue&lt;socketEvent&gt;</text>
<polyline fill="none" stroke="black" points="0,-138.5 425,-138.5"/>
<text text-anchor="middle" x="212.5" y="-123.3" font-family="Times New Roman,serif" font-size="14.00">&#45;&#45;&#45;&#45;&#45;&#45;&#45;&#45;&#45;&#45;&#45;&#45;&#45;&#45;&#45;&#45;&#45;&#45;&#45;&#45;&#45;&#45;&#45;&#45;&#45;&#45;&#45;&#45;&#45;&#45;&#45;&#45;&#45;&#45;&#45;&#45;&#45;&#45;&#45;&#45;&#45;&#45;&#45;&#45;&#45;&#45;&#45;&#45;&#45;&#45;&#45;&#45;&#45;&#45;&#45;&#45;&#45;&#45;&#45;&#45;&#45;&#45;&#45;&#45;&#45;&#45;&#45;&#45;&#45;&#45;&#45;&#45;&#45;&#45;&#45;&#45;&#45;&#45;&#45;&#45;&#45;&#45;&#45;&#45;&#45;</text>
<polyline fill="none" stroke="black" points="0,-115.5 425,-115.5"/>
<text text-anchor="middle" x="212.5" y="-100.3" font-family="Times New Roman,serif" font-size="14.00">+Constructor(:IP, :PORT, :FUNCTIONS(GET,POST,PUT,DELETE)) :</text>
<polyline fill="none" stroke="black" points="0,-92.5 425,-92.5"/>
<text text-anchor="middle" x="212.5" y="-77.3" font-family="Times New Roman,serif" font-size="14.00">+Start() :bool</text>
<polyline fill="none" stroke="black" points="0,-69.5 425,-69.5"/>
<text text-anchor="middle" x="212.5" y="-54.3" font-family="Times New Roman,serif" font-size="14.00">+connectionHandler( :socket) :bool</text>
<polyline fill="none" stroke="black" points="0,-46.5 425,-46.5"/>
<text text-anchor="middle" x="212.5" y="-31.3" font-family="Times New Roman,serif" font-size="14.00">+QueueSocketEvent( :socketEvent) :</text>
<polyline fill="none" stroke="black" points="0,-23.5 425,-23.5"/>
<text text-anchor="middle" x="212.5" y="-8.3" font-family="Times New Roman,serif" font-size="14.00"> </text>
</g>
<!-- socketEvent -->
<g id="node2" class="node">
<title>socketEvent</title>
<polygon fill="none" stroke="black" points="461,-93 461,-254 751,-254 751,-93 461,-93"/>
<text text-anchor="middle" x="606" y="-238.8" font-family="Times New Roman,serif" font-size="14.00">socketEvent</text>
<polyline fill="none" stroke="black" points="461,-231 751,-231"/>
<text text-anchor="middle" x="606" y="-215.8" font-family="Times New Roman,serif" font-size="14.00">+backgroundColour: consoleColor</text>
<polyline fill="none" stroke="black" points="461,-208 751,-208"/>
<text text-anchor="middle" x="606" y="-192.8" font-family="Times New Roman,serif" font-size="14.00">+Message: string</text>
<polyline fill="none" stroke="black" points="461,-185 751,-185"/>
<text text-anchor="middle" x="606" y="-169.8" font-family="Times New Roman,serif" font-size="14.00">Endport: IP&#45;PORT</text>
<polyline fill="none" stroke="black" points="461,-162 751,-162"/>
<text text-anchor="middle" x="606" y="-146.8" font-family="Times New Roman,serif" font-size="14.00"> </text>
<polyline fill="none" stroke="black" points="461,-139 751,-139"/>
<text text-anchor="middle" x="606" y="-123.8" font-family="Times New Roman,serif" font-size="14.00">+constructor(:consoleColor, :string, :IP&#45;PORT) :</text>
<polyline fill="none" stroke="black" points="461,-116 751,-116"/>
<text text-anchor="middle" x="606" y="-100.8" font-family="Times New Roman,serif" font-size="14.00"> </text>
</g>
<!-- serverClass&#45;&gt;socketEvent -->
<g id="0" class="edge">
<title>serverClass:f1&#45;&gt;socketEvent:f0</title>
<path fill="none" stroke="black" d="M425,-242.5C436.38,-242.5 441.68,-242.5 449.55,-242.5"/>
<polygon fill="black" stroke="black" points="449.49,-246 459.49,-242.5 449.49,-239 449.49,-246"/>
</g>
<!-- httpParser -->
<g id="node3" class="node">
<title>httpParser</title>
<polygon fill="none" stroke="black" points="0,-296 0,-549 425,-549 425,-296 0,-296"/>
<text text-anchor="middle" x="212.5" y="-533.8" font-family="Times New Roman,serif" font-size="14.00">HttpServer</text>
<polyline fill="none" stroke="black" points="0,-526 425,-526"/>
<text text-anchor="middle" x="212.5" y="-510.8" font-family="Times New Roman,serif" font-size="14.00">&#45;backsideFunctions(GET, POST, PUT, DELETE) : function pointer</text>
<polyline fill="none" stroke="black" points="0,-503 425,-503"/>
<text text-anchor="middle" x="212.5" y="-487.8" font-family="Times New Roman,serif" font-size="14.00">&#45;ListeningSockets: socketClass</text>
<polyline fill="none" stroke="black" points="0,-480 425,-480"/>
<text text-anchor="middle" x="212.5" y="-464.8" font-family="Times New Roman,serif" font-size="14.00">&#45;OpenSockets: List&lt;socketClass&gt;</text>
<polyline fill="none" stroke="black" points="0,-457 425,-457"/>
<text text-anchor="middle" x="212.5" y="-441.8" font-family="Times New Roman,serif" font-size="14.00">&#45;SocketEventQueue: Queue&lt;socketEvent&gt;</text>
<polyline fill="none" stroke="black" points="0,-434 425,-434"/>
<text text-anchor="middle" x="212.5" y="-418.8" font-family="Times New Roman,serif" font-size="14.00">&#45;&#45;&#45;&#45;&#45;&#45;&#45;&#45;&#45;&#45;&#45;&#45;&#45;&#45;&#45;&#45;&#45;&#45;&#45;&#45;&#45;&#45;&#45;&#45;&#45;&#45;&#45;&#45;&#45;&#45;&#45;&#45;&#45;&#45;&#45;&#45;&#45;&#45;&#45;&#45;&#45;&#45;&#45;&#45;&#45;&#45;&#45;&#45;&#45;&#45;&#45;&#45;&#45;&#45;&#45;&#45;&#45;&#45;&#45;&#45;&#45;&#45;&#45;&#45;&#45;&#45;&#45;&#45;&#45;&#45;&#45;&#45;&#45;&#45;&#45;&#45;&#45;&#45;&#45;&#45;&#45;&#45;&#45;&#45;&#45;</text>
<polyline fill="none" stroke="black" points="0,-411 425,-411"/>
<text text-anchor="middle" x="212.5" y="-395.8" font-family="Times New Roman,serif" font-size="14.00">+Constructor(:IP, :PORT, :FUNCTIONS(GET,POST,PUT,DELETE)) :</text>
<polyline fill="none" stroke="black" points="0,-388 425,-388"/>
<text text-anchor="middle" x="212.5" y="-372.8" font-family="Times New Roman,serif" font-size="14.00">+Start() :bool</text>
<polyline fill="none" stroke="black" points="0,-365 425,-365"/>
<text text-anchor="middle" x="212.5" y="-349.8" font-family="Times New Roman,serif" font-size="14.00">+connectionHandler( :socket) :bool</text>
<polyline fill="none" stroke="black" points="0,-342 425,-342"/>
<text text-anchor="middle" x="212.5" y="-326.8" font-family="Times New Roman,serif" font-size="14.00">+QueueSocketEvent( :socketEvent) :</text>
<polyline fill="none" stroke="black" points="0,-319 425,-319"/>
<text text-anchor="middle" x="212.5" y="-303.8" font-family="Times New Roman,serif" font-size="14.00"> </text>
</g>
</g>
</svg>
